<mxfile host="app.diagrams.net" modified="2024-05-10T05:42:28.417Z" agent="Mozilla/5.0 (Windows NT 10.0; Win64; x64) AppleWebKit/537.36 (KHTML, like Gecko) Chrome/124.0.0.0 Safari/537.36" version="24.3.1" etag="PenL0qukfE7tbpt09eqK" type="github">
  <diagram name="Trang-1" id="0NUGyczV2TjEh3ZK7BRF">
    <mxGraphModel>
      <root>
        <mxCell id="0" />
        <mxCell id="1" parent="0" />
      </root>
    </mxGraphModel>
  </diagram>
</mxfile>
